<?xml version="1.0" encoding="UTF-8"?>
<svg xmlns="http://www.w3.org/2000/svg" xmlns:xlink="http://www.w3.org/1999/xlink" viewBox="0 0 169.08 53.96">
  <defs>
    <style>
      .cls-1 {
        fill: url(#linear-gradient-2);
      }

      .cls-2 {
        opacity: .3;
      }

      .cls-3, .cls-4 {
        fill: #fff;
      }

      .cls-5 {
        mask: url(#mask);
      }

      .cls-6 {
        fill: #515251;
      }

      .cls-7 {
        fill: url(#linear-gradient-4);
      }

      .cls-8 {
        fill: url(#radial-gradient);
      }

      .cls-9 {
        fill: url(#radial-gradient-3);
      }

      .cls-10 {
        fill: url(#linear-gradient-3);
      }

      .cls-11 {
        isolation: isolate;
      }

      .cls-12 {
        fill: url(#radial-gradient-2);
      }

      .cls-13 {
        fill: url(#radial-gradient-4);
      }

      .cls-4 {
        opacity: .15;
      }

      .cls-14 {
        fill: url(#linear-gradient);
      }

      .cls-15 {
        fill: #ce181e;
      }

      .cls-16, .cls-17 {
        opacity: .5;
      }

      .cls-18 {
        fill: #414042;
      }

      .cls-17 {
        mix-blend-mode: multiply;
      }
    </style>
    <linearGradient id="linear-gradient" x1="23.75" y1="11.51" x2="23.75" y2="32.44" gradientUnits="userSpaceOnUse">
      <stop offset="0" stop-color="#fff"/>
      <stop offset=".09" stop-color="#f8f8f8"/>
      <stop offset=".22" stop-color="#e7e7e7"/>
      <stop offset=".36" stop-color="#cacaca"/>
      <stop offset=".52" stop-color="#a1a1a1"/>
      <stop offset=".7" stop-color="#6d6d6d"/>
      <stop offset=".88" stop-color="#2f2f2f"/>
      <stop offset="1" stop-color="#000"/>
    </linearGradient>
    <linearGradient id="linear-gradient-2" x1="57.55" y1="11.51" x2="57.55" y2="32.44" xlink:href="#linear-gradient"/>
    <linearGradient id="linear-gradient-3" x1="91.36" x2="91.36" xlink:href="#linear-gradient"/>
    <linearGradient id="linear-gradient-4" x1="57.35" y1="1.29" x2="57.35" y2="42.75" gradientUnits="userSpaceOnUse">
      <stop offset=".34" stop-color="#fff"/>
      <stop offset=".4" stop-color="#f8f8f8"/>
      <stop offset=".48" stop-color="#e7e7e7"/>
      <stop offset=".58" stop-color="#cacaca"/>
      <stop offset=".69" stop-color="#a1a1a1"/>
      <stop offset=".8" stop-color="#6d6d6d"/>
      <stop offset=".92" stop-color="#2f2f2f"/>
      <stop offset="1" stop-color="#000"/>
    </linearGradient>
    <radialGradient id="radial-gradient" cx="398.6" cy="451.82" fx="398.6" fy="451.82" r="177.88" gradientTransform="translate(-110.91 -64.04) scale(.42 .15)" gradientUnits="userSpaceOnUse">
      <stop offset="0" stop-color="#fff"/>
      <stop offset=".07" stop-color="#fff" stop-opacity=".98"/>
      <stop offset=".17" stop-color="#fff" stop-opacity=".91"/>
      <stop offset=".28" stop-color="#fff" stop-opacity=".79"/>
      <stop offset=".41" stop-color="#fff" stop-opacity=".63"/>
      <stop offset=".54" stop-color="#fff" stop-opacity=".43"/>
      <stop offset=".68" stop-color="#fff" stop-opacity=".19"/>
      <stop offset=".78" stop-color="#fff" stop-opacity="0"/>
    </radialGradient>
    <mask id="mask" x="0" y="-20.71" width="114.76" height="66.39" maskUnits="userSpaceOnUse">
      <path class="cls-4" d="M114.76-3c0,28.52-3.86,28.36-57.21,28.36S.34,25.52.34-3s25.61-10.39,57.21-10.39,57.21-22.04,57.21,10.39Z"/>
    </mask>
    <radialGradient id="radial-gradient-2" cx="400.2" cy="490.51" fx="400.2" fy="490.51" r="100.64" gradientTransform="translate(-110.91 -187.31) scale(.42)" gradientUnits="userSpaceOnUse">
      <stop offset="0" stop-color="#fff"/>
      <stop offset=".25" stop-color="#fff" stop-opacity=".99"/>
      <stop offset=".42" stop-color="#fff" stop-opacity=".95"/>
      <stop offset=".57" stop-color="#fff" stop-opacity=".89"/>
      <stop offset=".71" stop-color="#fff" stop-opacity=".81"/>
      <stop offset=".83" stop-color="#fff" stop-opacity=".7"/>
      <stop offset=".95" stop-color="#fff" stop-opacity=".57"/>
      <stop offset="1" stop-color="#fff" stop-opacity=".5"/>
    </radialGradient>
    <radialGradient id="radial-gradient-3" cx="400.2" cy="490.51" fx="400.2" fy="490.51" r="100.64" xlink:href="#radial-gradient-2"/>
    <radialGradient id="radial-gradient-4" cx="400.2" fx="400.2" r="100.64" xlink:href="#radial-gradient-2"/>
  </defs>
  <g class="cls-11">
    <g id="Layer_2" data-name="Layer 2">
      <g id="Layer_1-2" data-name="Layer 1">
        <g>
          <g>
            <path class="cls-6" d="M122.18,10.3h3.37v14.52c0,4.1,2.73,5.81,6.89,5.81s6.89-1.72,6.89-5.81v-14.52h3.37v14.11c0,6.07-3.37,9.15-10.26,9.15s-10.26-3.08-10.26-9.15v-14.11Z"/>
            <path class="cls-6" d="M155.16,21.93l-4.13,3.65v7.4h-3.37V10.3h3.37v11.41l12.68-11.41h4.76l-10.77,9.4,11.37,13.28h-4.64l-9.28-11.06Z"/>
          </g>
          <g>
            <path class="cls-18" d="M114.7,34.75c0,3.62-2.96,6.83-6.57,7.12l-44.01,3.58c-3.61.29-9.52.3-13.14,0l-44.42-3.59c-3.61-.29-6.57-3.5-6.57-7.12V6.59C0,2.97,2.97,0,6.59,0h101.52c3.62,0,6.59,2.97,6.59,6.59v28.17Z"/>
            <path class="cls-15" d="M108.13,44.34l-44.01,3.58c-3.61.29-9.52.29-13.14,0l-44.42-3.59c-3.61-.29-6.57-3.5-6.57-7.12v5.81c0,3.62,2.96,6.83,6.57,7.12l44.42,3.59c3.61.29,9.52.29,13.14,0l44.01-3.58c3.61-.29,6.57-3.5,6.57-7.13v-5.81c0,3.62-2.96,6.83-6.57,7.12Z"/>
            <g>
              <g>
                <path class="cls-3" d="M15.74,23.35c-4.38-.67-6.2-3.21-6.2-6.39,0-5.88,5.75-7.47,13.12-7.47,10.1,0,14.27,2.64,14.58,7.44h-10.42c0-.92-.54-1.49-1.37-1.81-.8-.35-1.81-.48-2.8-.48-2.67,0-3.59.67-3.59,1.62,0,.64.29,1.05,1.18,1.18l10.71,1.59c4.51.67,7.31,2.76,7.31,6.61,0,5.53-4.51,8.13-14.58,8.13-6.89,0-14.43-.95-14.46-7.63h10.8c.03.76.32,1.27.95,1.62.67.32,1.65.48,3.05.48,2.8,0,3.56-.76,3.56-1.84,0-.67-.41-1.33-1.62-1.52l-10.23-1.53Z"/>
                <path class="cls-3" d="M39,10.29h8.67l2.92,13.85h.06l3.34-13.85h7.15l3.31,13.85h.06l2.92-13.85h8.67l-6.64,22.69h-8.8l-3.08-12.58h-.06l-3.11,12.58h-8.8l-6.61-22.69Z"/>
                <path class="cls-3" d="M83.35,23.35c-4.38-.67-6.2-3.21-6.2-6.39,0-5.88,5.75-7.47,13.12-7.47,10.1,0,14.27,2.64,14.58,7.44h-10.42c0-.92-.54-1.49-1.37-1.81-.8-.35-1.81-.48-2.8-.48-2.67,0-3.59.67-3.59,1.62,0,.64.29,1.05,1.18,1.18l10.71,1.59c4.51.67,7.31,2.77,7.31,6.61,0,5.53-4.51,8.13-14.58,8.13-6.89,0-14.42-.95-14.46-7.63h10.8c.03.76.32,1.27.95,1.62.67.32,1.65.48,3.05.48,2.8,0,3.56-.76,3.56-1.84,0-.67-.41-1.33-1.62-1.52l-10.23-1.53Z"/>
              </g>
              <g class="cls-2">
                <path class="cls-14" d="M15.74,23.35c-4.38-.67-6.2-3.21-6.2-6.39,0-5.88,5.75-7.47,13.12-7.47,10.1,0,14.27,2.64,14.58,7.44h-10.42c0-.92-.54-1.49-1.37-1.81-.8-.35-1.81-.48-2.8-.48-2.67,0-3.59.67-3.59,1.62,0,.64.29,1.05,1.18,1.18l10.71,1.59c4.51.67,7.31,2.76,7.31,6.61,0,5.53-4.51,8.13-14.58,8.13-6.89,0-14.43-.95-14.46-7.63h10.8c.03.76.32,1.27.95,1.62.67.32,1.65.48,3.05.48,2.8,0,3.56-.76,3.56-1.84,0-.67-.41-1.33-1.62-1.52l-10.23-1.53Z"/>
                <path class="cls-1" d="M39,10.29h8.67l2.92,13.85h.06l3.34-13.85h7.15l3.31,13.85h.06l2.92-13.85h8.67l-6.64,22.69h-8.8l-3.08-12.58h-.06l-3.11,12.58h-8.8l-6.61-22.69Z"/>
                <path class="cls-10" d="M83.35,23.35c-4.38-.67-6.2-3.21-6.2-6.39,0-5.88,5.75-7.47,13.12-7.47,10.1,0,14.27,2.64,14.58,7.44h-10.42c0-.92-.54-1.49-1.37-1.81-.8-.35-1.81-.48-2.8-.48-2.67,0-3.59.67-3.59,1.62,0,.64.29,1.05,1.18,1.18l10.71,1.59c4.51.67,7.31,2.77,7.31,6.61,0,5.53-4.51,8.13-14.58,8.13-6.89,0-14.42-.95-14.46-7.63h10.8c.03.76.32,1.27.95,1.62.67.32,1.65.48,3.05.48,2.8,0,3.56-.76,3.56-1.84,0-.67-.41-1.33-1.62-1.52l-10.23-1.53Z"/>
              </g>
            </g>
            <g class="cls-17">
              <path class="cls-7" d="M114.7,34.75c0,3.62-2.96,6.83-6.57,7.12l-44.01,3.58c-3.61.29-9.52.3-13.14,0l-44.42-3.59c-3.61-.29-6.57-3.5-6.57-7.12V6.59C0,2.97,2.97,0,6.59,0h101.52c3.62,0,6.59,2.97,6.59,6.59v28.17Z"/>
            </g>
            <g class="cls-2">
              <path class="cls-8" d="M114.7,34.75c0,3.62-2.96,6.83-6.57,7.12l-44.01,3.58c-3.61.29-9.52.3-13.14,0l-44.42-3.59c-3.61-.29-6.57-3.5-6.57-7.12V6.59C0,2.97,2.97,0,6.59,0h101.52c3.62,0,6.59,2.97,6.59,6.59v28.17Z"/>
            </g>
            <g class="cls-5">
              <g class="cls-16">
                <path class="cls-3" d="M114.7,34.75c0,3.62-2.96,6.83-6.57,7.12l-44.01,3.58c-3.61.29-9.52.3-13.14,0l-44.42-3.59c-3.61-.29-6.57-3.5-6.57-7.12V6.59C0,2.97,2.97,0,6.59,0h101.52c3.62,0,6.59,2.97,6.59,6.59v28.17Z"/>
              </g>
            </g>
            <g class="cls-16">
              <path class="cls-12" d="M30.96,19.03l-10.71-1.59c-.89-.13-1.18-.54-1.18-1.18,0-.95.92-1.62,3.59-1.62.98,0,2,.13,2.8.48.83.32,1.37.89,1.37,1.81h10.42c-.32-4.8-4.48-7.44-14.58-7.44-7.37,0-13.12,1.59-13.12,7.47,0,3.18,1.81,5.72,6.2,6.39l10.23,1.53c1.21.19,1.62.86,1.62,1.52,0,1.08-.76,1.84-3.56,1.84-1.4,0-2.38-.16-3.05-.48-.64-.35-.92-.86-.95-1.62h-10.8c.03,6.67,7.56,7.63,14.46,7.63,10.07,0,14.58-2.61,14.58-8.13,0-3.85-2.8-5.94-7.31-6.61ZM23.68,33.19c-9.18,0-13.49-2-13.85-6.46h9.69c.15.69.55,1.2,1.21,1.56.76.36,1.81.53,3.3.53,1.78,0,4.14-.25,4.14-2.42,0-1.1-.79-1.89-2.12-2.1l-10.23-1.52c-3.73-.57-5.7-2.58-5.7-5.81,0-4.7,3.99-6.89,12.54-6.89,11.31,0,13.53,3.41,13.94,6.27h-9.26c-.18-.8-.76-1.42-1.65-1.76-.99-.43-2.19-.53-3.03-.53-2.77,0-4.17.74-4.17,2.2,0,.69.29,1.55,1.67,1.75l10.71,1.59c4.52.67,6.81,2.7,6.81,6.03,0,5.22-4.32,7.55-14,7.55Z"/>
              <path class="cls-9" d="M64.51,24.15h-.06l-3.31-13.85h-7.15l-3.34,13.85h-.06l-2.92-13.85h-8.67l6.61,22.69h8.8l3.11-12.58h.06l3.08,12.58h8.8l6.64-22.69h-8.67l-2.92,13.85ZM75.33,10.87l-6.3,21.52h-7.91l-2.97-12.14-.11-.44h-.97l-.11.44-3.01,12.14h-7.91l-6.27-21.52h7.43l2.83,13.39.1.46h.99l.11-.44,3.23-13.41h6.23l3.2,13.41.11.45h.99l.1-.46,2.83-13.39h7.43Z"/>
              <path class="cls-13" d="M98.57,19.03l-10.71-1.59c-.89-.13-1.18-.54-1.18-1.18,0-.95.92-1.62,3.59-1.62.98,0,2,.13,2.8.48.82.32,1.37.89,1.37,1.81h10.42c-.32-4.8-4.48-7.44-14.58-7.44-7.37,0-13.12,1.59-13.12,7.47,0,3.18,1.81,5.72,6.2,6.39l10.23,1.53c1.21.19,1.62.86,1.62,1.52,0,1.08-.76,1.84-3.56,1.84-1.4,0-2.38-.16-3.05-.48-.64-.35-.92-.86-.95-1.62h-10.8c.03,6.67,7.56,7.63,14.46,7.63,10.07,0,14.58-2.61,14.58-8.13,0-3.85-2.8-5.94-7.31-6.61ZM91.3,33.19c-9.18,0-13.49-2-13.85-6.46h9.69c.15.69.55,1.2,1.21,1.56.76.36,1.81.53,3.3.53,1.78,0,4.14-.25,4.14-2.42,0-1.1-.79-1.89-2.12-2.1l-10.23-1.52c-3.73-.57-5.7-2.58-5.7-5.81,0-4.7,3.99-6.89,12.54-6.89,11.31,0,13.53,3.41,13.94,6.27h-9.26c-.18-.8-.76-1.42-1.65-1.76-.99-.43-2.19-.53-3.03-.53-2.77,0-4.17.74-4.17,2.2,0,.69.29,1.55,1.67,1.75l10.71,1.59c4.52.67,6.81,2.7,6.81,6.03,0,5.22-4.32,7.55-14,7.55Z"/>
            </g>
          </g>
        </g>
      </g>
    </g>
  </g>
</svg>